# xmcd
#
# Track frame offsets:
#	150
#	12971
#	21519
#	42189
#	57148
#	75301
#	93169
#	106696
#	121730
#	134178
#	149116
#	166552
#	178577
#
# Disc length: 2604 seconds
#
# Revision: 0
# Processed by: cddbd v1.5.2PL0 Copyright (c) Steve Scherf et al.
# Submitted via: audiograbber 1.83.01
#
DISCID=a10a2a0d
DTITLE=Elvis Presley - 46 Elvis Now
DYEAR=1972
DGENRE=Rock Pop
TTITLE0=Help Me Make It Through The Night
TTITLE1=Miracle of the Rosary
TTITLE2=Hey Jude
TTITLE3=Put Your Hand in the Hand
TTITLE4=Until it's Time for You to Go
TTITLE5=We Can Make the Morning
TTITLE6=Early Morning Rain
TTITLE7=Sylvia
TTITLE8=Fools Rush In (Where Angles Fear To Tread)
TTITLE9=I Was Born About 10,000 Years Ago
TTITLE10=Im Leaving
TTITLE11=It's Only Love
TTITLE12=The First Time Ever I Saw Your Face
EXTD=
EXTT0=
EXTT1=
EXTT2=
EXTT3=
EXTT4=
EXTT5=
EXTT6=
EXTT7=
EXTT8=
EXTT9=
EXTT10=
EXTT11=
EXTT12=
PLAYORDER=
